<svg width="471" height="54" viewBox="0 0 471 54" fill="none" xmlns="http://www.w3.org/2000/svg">
<path d="M35.55 38L20.71 2.02H0.76V52H13.92V11.96H14.06L29.88 52H41.22L57.04 11.96H57.18V52H70.34V2.02H50.39L35.55 38ZM77.0518 27.01C77.0518 37.44 81.2518 53.4 108.132 53.4C135.012 53.4 139.212 37.44 139.212 27.01C139.212 16.58 135.012 0.619998 108.132 0.619998C81.2518 0.619998 77.0518 16.58 77.0518 27.01ZM91.4718 27.01C91.4718 19.24 95.8118 10.14 108.132 10.14C120.452 10.14 124.792 19.24 124.792 27.01C124.792 34.78 120.452 43.88 108.132 43.88C95.8118 43.88 91.4718 34.78 91.4718 27.01ZM159.535 11.54H173.395C183.755 11.54 187.675 17.28 187.675 26.52C187.675 37.09 183.615 42.48 174.655 42.48H159.535V11.54ZM145.955 52H178.295C193.975 52 201.675 42.06 201.675 27.01C201.675 11.96 194.255 2.02 177.105 2.02H145.955V52ZM251.601 36.88H251.461L225.211 2.02H209.461V52H222.621V17.14H222.761L249.991 52H264.761V2.02H251.601V36.88ZM274.266 52H287.846V2.02H274.266V52ZM310.951 23.51V2.02H297.371V52H310.951V37.16L318.861 30.37L335.871 52H354.211L329.501 22.11L352.461 2.02H334.191L310.951 23.51ZM371.86 23.51V2.02H358.28V52H371.86V37.16L379.77 30.37L396.78 52H415.12L390.41 22.11L413.37 2.02H395.1L371.86 23.51ZM434.868 52H448.448V34.57L470.568 2.02H454.608L441.658 23.79L428.708 2.02H412.748L434.868 34.57V52Z" fill="white"/>
</svg>
