<svg width="24" height="24" viewBox="0 0 24 24" fill="none" xmlns="http://www.w3.org/2000/svg">
<path d="M22.7234 0H1.2766C0.57166 0 0 0.571404 0 1.2766V22.7234C0 23.4286 0.57166 24 1.2766 24H22.7234C23.4286 24 24 23.4286 24 22.7234V1.2766C24 0.571404 23.4286 0 22.7234 0ZM12.0204 2.23813C14.7521 2.24502 16.9453 4.48008 16.9317 7.24289C16.9172 9.94162 14.6883 12.1292 11.9609 12.12C9.26068 12.1108 7.04655 9.87243 7.06187 7.16783C7.07796 4.43362 9.29362 2.22996 12.0204 2.23813ZM17.554 14.0609C16.9499 14.6816 16.2227 15.13 15.4149 15.4437C14.6512 15.7389 13.8146 15.8885 12.9863 15.9876C13.1114 16.1239 13.1704 16.19 13.248 16.2689C14.3724 17.3987 15.5014 18.5239 16.622 19.657C17.0035 20.0428 17.0842 20.5215 16.8735 20.9706C16.6435 21.4621 16.129 21.7846 15.624 21.7499C15.3043 21.7274 15.0551 21.5683 14.834 21.346C13.9854 20.4919 13.1206 19.654 12.2898 18.7849C12.048 18.5316 11.9316 18.5788 11.7176 18.7991C10.8641 19.678 9.99728 20.5432 9.12485 21.4034C8.73294 21.79 8.26698 21.8591 7.81174 21.6388C7.32868 21.4047 7.02179 20.9117 7.04553 20.4156C7.06187 20.0806 7.22681 19.8248 7.45685 19.595C8.56902 18.4841 9.67864 17.3704 10.7888 16.2574C10.8626 16.1839 10.931 16.105 11.038 15.9906C9.52417 15.8326 8.15923 15.4603 6.99115 14.5463C6.84638 14.4327 6.69651 14.3229 6.56374 14.1957C6.0526 13.7045 6.00128 13.1426 6.40596 12.5627C6.75166 12.0669 7.33328 11.9336 7.93711 12.2183C8.0543 12.2732 8.16562 12.3424 8.27234 12.4162C10.4497 13.9123 13.4413 13.954 15.6271 12.4841C15.8433 12.3189 16.0749 12.182 16.3435 12.1141C16.8656 11.9801 17.3512 12.1713 17.6316 12.6278C17.9525 13.1479 17.9482 13.6565 17.554 14.0609Z" fill="black"/>
</svg>
