<svg width="70" height="100" viewBox="0 0 70 100" fill="none" xmlns="http://www.w3.org/2000/svg">
<path d="M67.4015 55.6436H64.7128V51.8243C64.7128 50.6085 63.7272 49.6228 62.5114 49.6228H44.5881C43.372 49.6228 42.3867 50.6085 42.3867 51.8243V55.6436H39.6977C38.4819 55.6436 37.4963 56.6292 37.4963 57.845V92.3508C37.4963 96.5687 40.9279 100 45.1458 100H61.954C66.1716 100 69.6032 96.5687 69.6032 92.3508V57.845C69.6029 56.6292 68.6172 55.6436 67.4015 55.6436ZM46.7895 54.026H60.31V55.6439H46.7895V54.026ZM65.2001 92.3508C65.2001 94.141 63.7439 95.5972 61.9537 95.5972H45.1455C43.3553 95.5972 41.8988 94.141 41.8988 92.3508V60.0464H65.1998L65.2001 92.3508Z" fill="#000F08"/>
<path d="M29.9052 60.8448H27.2165V28.43C27.2165 27.2142 26.2309 26.2285 25.0151 26.2285H24.7281V10.243C24.7281 10.1497 24.7216 7.9295 24.1448 5.67642C22.8806 0.737621 20.0097 0 18.4106 0C16.3997 0 14.2332 1.80956 11.1653 6.05096C9.26708 8.67533 7.74634 11.2569 7.68235 11.3655C7.48364 11.7036 7.37914 12.0884 7.37914 12.4806V26.2282H7.09237C5.87631 26.2282 4.89096 27.2139 4.89096 28.4297V60.8445H2.20141C0.985647 60.8445 0 61.8301 0 63.0459V92.3502C0 96.5681 3.43127 99.9994 7.64948 99.9994H24.4574C28.6753 99.9994 32.1069 96.5681 32.1069 92.3502V63.0459C32.1066 61.8304 31.121 60.8448 29.9052 60.8448ZM11.7817 13.0855C14.2922 8.90986 17.3269 5.01101 18.5356 4.41692C19.6064 4.66113 20.3182 8.00611 20.3255 10.243V26.2285H11.7817V13.0855ZM9.2932 30.6314H22.8137V60.8448H9.2932V30.6314ZM27.7038 92.3508C27.7038 94.141 26.2473 95.5972 24.4571 95.5972H7.64918C5.85899 95.5972 4.40254 94.141 4.40254 92.3508V65.2479H27.7035L27.7038 92.3508Z" fill="#000F08"/>
</svg>
