<svg width="46" height="100" viewBox="0 0 46 100" fill="none" xmlns="http://www.w3.org/2000/svg">
<path d="M41.9768 6.57685V1.19523C41.9768 0.535222 41.4416 0 40.7816 0H5.21813C4.55813 0 4.02291 0.535222 4.02291 1.19523V6.57804C3.67294 8.10722 0.791016 21.3345 0.791016 41.7017V98.8048C0.791016 99.4645 1.32624 100 1.98624 100H20.1262C20.7864 100 21.3214 99.4645 21.3214 98.8048C21.3214 98.3962 21.3446 64.4248 23.0002 42.4042C24.6556 64.4248 24.6786 98.3962 24.6786 98.8048C24.6786 99.4645 25.2138 100 25.8738 100H44.0142C44.6742 100 45.2094 99.4645 45.2094 98.8048V41.7014C45.2092 21.33 42.3256 8.10124 41.9768 6.57685ZM6.41336 2.39045H13.0861V5.51477H6.41336V2.39045ZM6.17981 7.90522H10.3978V11.0907C10.3978 11.2334 10.37 11.3927 10.168 11.5911C9.50134 12.2458 7.65735 12.6799 5.29965 12.7698C5.66132 10.4886 5.98331 8.843 6.17981 7.90522ZM18.9336 97.6096H3.18147V94.6954H18.9477C18.94 95.9231 18.9357 96.9115 18.9336 97.6096ZM21.8048 30.8528C19.5895 45.5472 19.0816 78.3387 18.9654 92.3047H7.8909L7.88851 92.0553C7.88229 91.3994 7.34826 90.8713 6.69352 90.8713H6.68204C6.0218 90.8778 5.49184 91.418 5.49805 92.0778L5.5002 92.3047H3.18147V41.7014C3.18147 30.3071 4.09103 21.1985 4.94012 15.1748C5.31734 15.1679 5.70339 15.1519 6.09208 15.1268C6.11049 16.4191 7.25384 16.4112 7.28491 16.4112C7.90309 16.4112 8.42684 15.935 8.47536 15.3085C8.48851 15.1371 8.50213 14.9733 8.51576 14.8141C9.85441 14.5351 11.0606 14.0654 11.8437 13.2962C12.4619 12.6888 12.7887 11.9262 12.7887 11.0907V7.90522H21.8052V30.8528H21.8048ZM21.8048 5.51477H15.4765V2.39045H21.8048V5.51477ZM40.7008 12.7703C38.3421 12.6802 36.4984 12.2463 35.8317 11.5911C35.6297 11.3927 35.602 11.2337 35.602 11.091V7.90522H39.8204C40.0167 8.843 40.3389 10.4888 40.7008 12.7703ZM32.9139 2.39045H39.5864V5.51477H32.9139V2.39045ZM24.1952 2.39045H30.5237V5.51477H24.1952V2.39045ZM24.1952 7.90522H26.197V17.4116C26.197 19.2525 25.7777 20.6014 24.9845 21.3121C24.7276 21.5425 24.4527 21.6876 24.1952 21.7806V7.90522ZM42.8187 97.6096H27.0664C27.064 96.9115 27.0599 95.9231 27.0518 94.6954H42.8187V97.6096ZM42.8187 92.3047H40.4998L40.5019 92.0778C40.5081 91.418 39.9782 90.8778 39.3179 90.8713H39.3067C38.6517 90.8713 38.1177 91.3994 38.1115 92.0553L38.1091 92.3047H27.0344C26.9182 78.3382 26.4102 45.5472 24.1952 30.8528V24.2483C24.8856 24.1249 25.7409 23.8252 26.5326 23.1343C27.8961 21.9441 28.5874 20.0191 28.5874 17.4118V7.90522H33.2115V11.0907C33.2115 11.926 33.5383 12.6888 34.1565 13.2962C34.9398 14.0661 36.1472 14.5359 37.4871 14.8146C37.5 14.9649 37.5127 15.1184 37.5251 15.279C37.5734 15.9056 38.0971 16.3818 38.7151 16.3818C39.0055 16.3818 39.895 16.2914 39.9072 15.1268C40.2961 15.1519 40.6826 15.1679 41.0601 15.1748C41.9092 21.1983 42.8185 30.3071 42.8185 41.7014V92.3047H42.8187Z" fill="#000F08"/>
</svg>
