<svg width="64" height="100" viewBox="0 0 64 100" fill="none" xmlns="http://www.w3.org/2000/svg">
<path d="M10.9147 50.5466L0.571289 100H63.4304L53.087 50.5466C52.9149 49.7245 52.6749 48.9112 52.3734 48.1295L47.2985 34.9659L49.058 22.6816L53.5144 23.1146L56.0831 12.0481C56.643 9.63618 56.1784 7.07006 54.8087 5.00761C53.4393 2.94515 51.2546 1.52153 48.8146 1.10138L42.4176 0L41.6801 2.01055C40.1971 6.0522 36.3076 8.76736 32.0007 8.76736C27.6939 8.76736 23.8043 6.0522 22.3214 2.01055L21.5839 0L15.1871 1.10087C12.7471 1.52102 10.5623 2.94464 9.19294 5.00709C7.82329 7.06955 7.35868 9.63592 7.91862 12.0476L10.4873 23.1141L14.9437 22.6811L16.7032 34.9654L11.6285 48.1287C11.3268 48.9112 11.0868 49.7245 10.9147 50.5466ZM14.475 17.5635L12.9252 10.8861C12.6803 9.83096 12.8753 8.75271 13.4746 7.85048C14.0739 6.94826 14.9915 6.35003 16.0592 6.16629L18.3892 5.7649C21.0509 10.7095 26.2805 13.907 32.001 13.907C37.7214 13.907 42.9508 10.7098 45.6128 5.7649L47.9427 6.16629C49.0102 6.35003 49.9281 6.948 50.5273 7.85048C51.1266 8.75297 51.3216 9.83096 51.0768 10.8861L49.527 17.5635L44.6671 17.0914L42.7665 30.3609H21.2362L19.3356 17.0914L14.475 17.5635ZM16.4239 49.9782L20.9155 38.3268H43.0857L47.5776 49.9782C47.7795 50.5024 47.9407 51.0479 48.056 51.5991L57.1045 94.8608H6.89665L15.9451 51.5996C16.0605 51.0479 16.2216 50.5024 16.4239 49.9782Z" fill="#000F08"/>
</svg>
