<svg width="58" height="100" viewBox="0 0 58 100" fill="none" xmlns="http://www.w3.org/2000/svg">
<path d="M53.6624 59.7257C51.7628 55.5859 49.662 51.9446 48.5788 50.1431C50.0378 47.036 53.7925 38.9793 55.0052 35.7915C57.2574 29.8719 53.3596 14.8621 52.5553 11.9132L51.7641 9.01239L51.6353 9.07376V0H46.6052V11.4661L33.4757 17.7104C30.6164 19.0705 27.3365 19.0703 24.4772 17.7104L11.3944 11.4882V0H6.36434V9.09589L6.18879 9.01239L5.39756 11.9132C4.59325 14.8621 0.695186 29.8719 2.9474 35.7913C4.16066 38.9806 7.91838 47.0431 9.37585 50.1471C8.30193 51.9446 6.21922 55.5771 4.33244 59.7111C0.518378 68.0673 -0.471039 73.9399 1.30709 77.6652C3.41721 82.0851 11.9736 86.1351 14.8428 87.3923C16.2998 89.2479 21.4151 95.7913 23.5644 98.9117L24.3139 100H33.5394L34.2856 98.8755C36.4181 95.6613 41.6297 88.9318 43.1393 86.9932C46.0471 85.8074 54.5047 82.0514 56.6536 77.6944C58.485 73.9812 57.5067 68.1035 53.6624 59.7257ZM29 24.8496C31.7735 24.8496 34.03 27.1061 34.03 29.8797C34.03 32.6533 31.7735 34.9098 29 34.9098C26.2264 34.9098 23.9699 32.6533 23.9699 29.8797C23.9699 27.1061 26.2264 24.8496 29 24.8496ZM52.1426 75.4693C51.0538 77.677 44.6475 81.0097 40.6617 82.5667L40.0201 82.817L39.5956 83.359C39.3395 83.6857 33.8067 90.7542 30.8626 94.9702H26.9401C24.025 90.9111 18.648 84.0926 18.3996 83.7772L17.9982 83.2692L17.4026 83.0177C13.379 81.319 6.92419 77.7545 5.84725 75.4982C3.90463 71.4286 9.65351 59.0984 14.3559 51.6433L15.0938 50.4746L14.5028 49.2251C14.4484 49.1104 9.06524 37.7233 7.64978 34.0028C6.53712 31.0786 7.99937 22.4744 9.50713 16.1601L22.3177 22.2528C22.3469 22.2667 22.3771 22.2782 22.4063 22.2921C20.2853 24.1378 18.9405 26.8538 18.9405 29.8797C18.9405 35.4268 23.4535 39.9398 29.0007 39.9398C34.5479 39.9398 39.0609 35.4268 39.0609 29.8797C39.0609 26.8463 37.7095 24.1243 35.5793 22.2782C35.5984 22.2692 35.6178 22.2619 35.6369 22.2528L48.4475 16.1601C49.9553 22.4741 51.4175 31.0783 50.3046 34.0028C48.8894 37.7231 43.506 49.1104 43.4516 49.2251L42.8586 50.4789L43.6025 51.6496C43.632 51.6961 46.5849 56.3608 49.0914 61.8234C53.3458 71.0972 52.6423 74.4557 52.1426 75.4693Z" fill="#000F08"/>
</svg>
