<svg width="100" height="92" viewBox="0 0 100 92" fill="none" xmlns="http://www.w3.org/2000/svg">
<path d="M99.1628 34.8319L90.911 13.5194C89.504 9.88474 86.4218 7.09276 82.6661 6.05016L60.8719 0.000310221V12.2766C60.8719 18.2715 55.9947 23.1487 49.9998 23.1487C44.0049 23.1487 39.1277 18.2715 39.1277 12.2766V0L17.3335 6.05016C13.5778 7.09276 10.4959 9.88474 9.08859 13.5194L0.837135 34.8316C-0.640331 38.6469 -0.141531 42.9396 2.17058 46.3148C4.483 49.69 8.30641 51.7051 12.3977 51.7051H18.7405L14.7191 91.0432H85.4571L81.3208 51.7054H87.6022C91.6938 51.7054 95.5169 49.6903 97.8293 46.3151C100.142 42.9396 100.64 38.6469 99.1628 34.8319ZM92.7082 42.8065C91.5365 44.5167 89.6753 45.4976 87.6022 45.4976H81.679L80.2518 27.948H72.5805L78.5621 84.8354H21.5937L27.4092 27.948H19.7208L18.4599 45.4976H12.3977C10.3246 45.4976 8.46346 44.5167 7.29174 42.8065C6.12032 41.0962 5.87728 39.0066 6.62594 37.0732L14.8777 15.7608C15.5804 13.9462 17.1194 12.5522 18.9941 12.0317L32.9199 8.1661V12.2763C32.9199 21.6942 40.5822 29.3562 49.9998 29.3562C59.4174 29.3562 67.0797 21.6939 67.0797 12.2763V8.1661L81.0055 12.0317C82.8802 12.5522 84.4192 13.9462 85.1219 15.7608L93.3737 37.0735C94.1226 39.0063 93.8799 41.0962 92.7082 42.8065Z" fill="#000F08"/>
</svg>
