<svg width="72" height="100" viewBox="0 0 72 100" fill="none" xmlns="http://www.w3.org/2000/svg">
<path d="M71.1376 90.2739C66.3283 78.0976 56.707 62.9796 54.9761 60.3001L57.5026 41.543C61.8438 36.8323 60.8909 29.7708 60.4952 27.7106L62.7949 24.091C62.8885 23.9432 62.9522 23.7788 62.9818 23.6067L65.9831 6.20047C66.1004 5.51927 65.6733 4.8624 65.0029 4.69401C59.0696 3.20289 52.9431 0.169369 52.882 0.138971C52.2323 -0.184577 51.4427 0.0763229 51.1141 0.723947C47.7838 7.28583 36.1575 7.01885 36.0401 7.01436C36.025 7.01383 36.011 7.01753 35.996 7.01753C35.9835 7.01726 35.9719 7.01409 35.9595 7.01436C35.8426 7.01753 24.2158 7.28583 20.8854 0.723947C20.5569 0.0763229 19.767 -0.184841 19.1176 0.138971C19.0565 0.169369 12.9392 3.20078 6.99695 4.69401C6.32659 4.86266 5.89916 5.51927 6.01653 6.20047L9.01754 23.6067C9.04714 23.7788 9.11085 23.9432 9.20442 24.091L11.5102 27.7201C11.1441 29.7766 10.2557 36.9219 14.497 41.5422L17.0235 60.3001C15.2929 62.9799 5.67157 78.0978 0.861971 90.2739C0.705219 90.6707 0.749628 91.1188 0.981451 91.4772C1.27169 91.926 3.85109 95.4919 12.4822 95.4919C12.8911 95.4919 13.3164 95.4822 13.7534 95.4652C13.6096 96.0521 13.4682 96.6204 13.3297 97.1657C13.1586 97.8392 13.5385 98.5302 14.1991 98.7467C14.4293 98.8223 18.0954 99.9997 22.4664 99.9997C24.7524 99.9994 27.2319 99.6772 29.5123 98.7068C30.0066 98.4964 30.3204 98.0084 30.3138 97.4745H41.6858C41.6792 98.0087 41.993 98.4964 42.4873 98.7068C44.768 99.6775 47.2469 99.9997 49.5332 99.9997C53.9037 99.9997 57.57 98.8223 57.8005 98.7467C58.4611 98.5302 58.841 97.839 58.6699 97.1657C58.5317 96.6207 58.39 96.0526 58.2462 95.4658C58.6834 95.483 59.1082 95.4919 59.5177 95.4919C68.1475 95.4917 70.7282 91.9263 71.0184 91.4772C71.25 91.1188 71.2944 90.6707 71.1376 90.2739ZM16.6841 40.0048C13.5636 36.8844 13.677 31.7811 13.9635 29.2609L15.553 29.8527C15.705 29.9093 15.8609 29.936 16.0143 29.936C16.5503 29.936 17.0549 29.6074 17.2529 29.0753C17.5078 28.3912 17.1596 27.6302 16.4758 27.3754L13.7872 26.3741L11.5774 22.8965L8.82695 6.94193C13.1486 5.72995 17.2677 3.92532 19.1842 3.03583C23.7569 9.82795 35.1009 9.68098 36.0013 9.65719C36.9172 9.68019 48.2469 9.82267 52.8159 3.03583C54.7324 3.92532 58.8515 5.72995 63.1734 6.94193L60.4222 22.8965L58.2126 26.3741L55.5243 27.3754C54.8402 27.6302 54.4924 28.3912 54.7472 29.0753C54.9454 29.6074 55.4498 29.936 55.9859 29.936C56.1392 29.936 56.2951 29.9091 56.4471 29.8527L58.0606 29.2516C58.377 31.733 58.5349 36.786 55.316 40.0051C55.1114 40.2097 54.9795 40.4762 54.9409 40.7632L52.4459 59.2874H51.3917V44.8409C51.3917 44.1108 50.7999 43.5192 50.07 43.5192C49.3402 43.5192 48.7483 44.1108 48.7483 44.8409V59.2874H36.0002H23.2518V44.8409C23.2518 44.1108 22.6599 43.5192 21.9301 43.5192C21.2003 43.5192 20.6084 44.1108 20.6084 44.8409V59.2874H19.5545L17.0594 40.7632C17.0206 40.4759 16.8887 40.2094 16.6841 40.0048ZM3.63169 90.4698C8.33767 78.9244 17.1689 64.9579 19.1173 61.9305H20.6082V63.5599C20.2941 65.1514 17.0941 81.3122 14.3957 92.7865C7.65092 93.1914 4.66075 91.3538 3.63169 90.4698ZM44.3685 96.5958L45.5393 70.6961C45.5723 69.9668 45.0077 69.3491 44.2784 69.316C43.5499 69.2838 42.9314 69.8476 42.8983 70.5769L41.8018 94.8314H30.1978L29.1013 70.5769C29.0682 69.8479 28.4478 69.287 27.7212 69.316C26.9919 69.3491 26.4275 69.9668 26.4603 70.6961L27.631 96.5956C23.4149 98.0108 18.4369 97.1028 16.2064 96.5583C19.1607 84.6053 23.1846 64.1562 23.2264 63.9437C23.2431 63.8599 23.2513 63.7742 23.2513 63.6889V61.9305H35.9997H48.7478V63.6889C48.7478 63.7742 48.756 63.8596 48.7727 63.9437C48.8144 64.1565 52.8389 84.6074 55.7932 96.5599C53.5653 97.1068 48.595 98.0169 44.3685 96.5958ZM57.6039 92.7867C54.9055 81.3127 51.7055 65.1512 51.3914 63.5601V61.9308H52.8826C54.831 64.9582 63.6622 78.9247 68.3682 90.4701C67.3394 91.3535 64.3492 93.1914 57.6039 92.7867Z" fill="#000F08"/>
</svg>
